<svg xmlns="http://www.w3.org/2000/svg" width="1240" height="1240"><path d="M348 147.995c-20.765 1.599-48.186 7.28-72.5 15.018-39.124 12.452-89.748 37.499-125 61.844C95.093 263.121 42.837 323.59 23.595 371.708 11.763 401.296 3.758 439.343 1.021 479 .388 488.17.016 603.694.01 793.25L0 1093h173l.008-304.75c.006-202.031.355-307.784 1.036-313.75 4.474-39.195 20.38-76.488 45.279-106.161 25.744-30.681 61.77-52.856 100.566-61.901 17.015-3.967 25.039-4.401 81.611-4.413 63.279-.013 63.946.06 82 8.967 24.154 11.916 40.692 32.734 48.091 60.537 1.788 6.718 1.866 19.943 2.144 364.221l.289 357.25H706l.001-300.75c0-198.541.351-304.44 1.03-311.606 3.651-38.498 17.634-73.71 41.358-104.144 5.971-7.66 22.2-24.081 30.611-30.975 27.821-22.802 63.924-38.151 100-42.517 6.404-.774 26.938-1.045 63-.829l53.5.321 9.5 3.299c15.196 5.277 23.078 10.276 35.001 22.2 7.502 7.501 11.752 12.723 14.879 18.279 5.105 9.071 9.585 21.511 11.062 30.722.709 4.422 1.045 119.938 1.05 361.256l.008 354.755 86.75-.255 86.75-.256.261-283c.282-305.585-.539-416.151-3.233-435.5-3.953-28.383-12.15-55.347-24.472-80.5-33.067-67.5-93.022-117.101-165.583-136.988-28.018-7.679-48.446-9.492-106.973-9.493-45.411-.001-67.01.991-87.983 4.044-69.39 10.098-135.185 41.905-183.809 88.859l-10.793 10.422-12.939-13.566C598.221 187.76 542.678 158.703 478 149.424c-9.301-1.334-21.827-1.706-65.5-1.944-29.7-.162-58.725.07-64.5.515M.494 790.5c0 166.65.115 234.676.256 151.169.141-83.507.141-219.857 0-303S.494 623.85.494 790.5" fill="undefined" fill-rule="evenodd"/></svg>